<svg xmlns="http://www.w3.org/2000/svg" width="60" height="104" viewBox="0 0 60 104">
  <defs>
    <linearGradient id="scrub" x1="0" x2="1">
      <stop offset="0" stop-color="#244f93"/><stop offset=".45" stop-color="#3a70c2"/><stop offset="1" stop-color="#1f447f"/>
    </linearGradient>
    <radialGradient id="skin" cx=".4" cy=".35" r=".7">
      <stop offset="0" stop-color="#d99d74"/><stop offset="1" stop-color="#b27550"/>
    </radialGradient>
    <linearGradient id="mask" x1="0" y1="0" x2="0" y2="1">
      <stop offset="0" stop-color="#e7f4fb"/><stop offset="1" stop-color="#a9cde2"/>
    </linearGradient>
    <pattern id="dots" width="6" height="6" patternUnits="userSpaceOnUse">
      <rect width="6" height="6" fill="#7447b0"/><circle cx="2" cy="2" r="1.1" fill="#f6d7ff"/><circle cx="5" cy="5" r=".8" fill="#9fe7dc"/>
    </pattern>
  </defs>
  <!-- torso -->
  <path d="M8 60 Q10 54 22 52 L38 52 Q50 54 52 60 L50 104 L10 104 Z" fill="url(#scrub)" stroke="#16335f" stroke-width="1.2"/>
  <path d="M23 52 L30 64 L37 52" fill="#16335f" opacity=".55"/>
  <path d="M24 52 L30 62 L36 52 Z" fill="url(#skin)"/>
  <line x1="30" y1="66" x2="30" y2="102" stroke="#1a3d73" stroke-width=".8" opacity=".6"/>
  <rect x="35" y="70" width="11" height="9" rx="1.5" fill="#2c5ea8" stroke="#1a3d73" stroke-width=".7"/>
  <rect x="37" y="66" width="1.6" height="7" fill="#f2f5f7"/><rect x="40" y="65" width="1.6" height="8" fill="#e8534f"/>
  <rect x="14" y="68" width="12" height="15" rx="2" fill="#f4fbff" stroke="#9fb7c9" stroke-width=".6"/>
  <rect x="14" y="68" width="12" height="4.5" rx="1.5" fill="#1aa58f"/>
  <text x="20" y="80" font-family="Arial" font-size="4.6" font-weight="700" text-anchor="middle" fill="#134e60">GPA</text>
  <path d="M10 98 L50 98" stroke="#16335f" stroke-width="2" opacity=".35"/>
  <!-- cuello y cabeza -->
  <rect x="25" y="42" width="10" height="12" rx="3" fill="#a86d49"/>
  <ellipse cx="12.5" cy="31" rx="3" ry="4.2" fill="#b27550"/>
  <ellipse cx="47.5" cy="31" rx="3" ry="4.2" fill="#b27550"/>
  <circle cx="30" cy="29" r="17" fill="url(#skin)"/>
  <!-- ojos -->
  <path d="M20 26.5 Q23.5 24.5 27 26" stroke="#3b2418" stroke-width="1.3" fill="none" stroke-linecap="round"/>
  <path d="M33 26 Q36.5 24.5 40 26.5" stroke="#3b2418" stroke-width="1.3" fill="none" stroke-linecap="round"/>
  <ellipse cx="23.6" cy="30.2" rx="2.1" ry="2.5" fill="#fff"/><ellipse cx="36.4" cy="30.2" rx="2.1" ry="2.5" fill="#fff"/>
  <circle cx="24" cy="30.6" r="1.45" fill="#2a1a12"/><circle cx="36.8" cy="30.6" r="1.45" fill="#2a1a12"/>
  <circle cx="24.5" cy="30" r=".5" fill="#fff"/><circle cx="37.3" cy="30" r=".5" fill="#fff"/>
  <!-- mascarilla -->
  <path d="M13.5 31 L16 34" stroke="#d9ecf7" stroke-width="1"/><path d="M46.5 31 L44 34" stroke="#d9ecf7" stroke-width="1"/>
  <path d="M15 34 Q30 31 45 34 L44 44 Q30 50 16 44 Z" fill="url(#mask)" stroke="#8fb6cc" stroke-width=".7"/>
  <path d="M17 37.5 Q30 35.5 43 37.5 M17.5 40.5 Q30 39 42.5 40.5" stroke="#8fb6cc" stroke-width=".6" fill="none"/>
  <!-- gorro estampado -->
  <path d="M11 24 Q10 7 30 5 Q50 7 49 24 Q40 19 30 19.5 Q20 19 11 24 Z" fill="url(#dots)" stroke="#4e2c80" stroke-width="1"/>
  <path d="M11 24 Q20 18.5 30 19 Q40 18.5 49 24 L48.5 21.5 Q40 16.5 30 17 Q20 16.5 11.5 21.5 Z" fill="#5c3596"/>
  <path d="M46 20 Q53 21 53 26 Q50 23.5 47 23.5 Z" fill="#5c3596"/>
</svg>
